<svg width="114" height="66" viewBox="0 0 114 66" fill="none" xmlns="http://www.w3.org/2000/svg">
<path d="M1 65.2067C1 65.2067 15.9132 3.4422 25.971 3.55264C36.0288 3.66309 46.4334 45.1354 58.5721 45.1354C70.7107 45.1354 78.3408 30.1722 85.9708 30.1722C93.6008 30.1722 112.676 65.2066 112.676 65.2066" stroke="#C2EAEE"/>
<path d="M1 65.2075C1 65.2075 15.9132 0.889554 25.971 1C36.0288 1.11045 46.4334 45.1362 58.5721 45.1362C70.7107 45.1362 78.3408 33.0893 85.9708 33.0893C93.6008 33.0893 112.676 65.2074 112.676 65.2074" stroke="#F6FFFE"/>
<path d="M1 65.2055C1 65.2055 15.9132 5.99466 25.971 6.1051C36.0288 6.21555 46.4334 45.1343 58.5721 45.1343C70.7107 45.1343 78.3408 27.6195 85.9708 27.6195C93.6008 27.6195 112.676 65.2054 112.676 65.2054" stroke="#ACE6EC"/>
<path d="M1 65.2045C1 65.2045 15.9132 8.54731 25.971 8.65775C36.0288 8.7682 46.4334 45.1333 58.5721 45.1333C70.7107 45.1333 78.3408 24.7029 85.9708 24.7029C93.6008 24.7029 112.676 65.2044 112.676 65.2044" stroke="#85C6CC"/>
<path d="M1 65.203C1 65.203 15.9132 10.7353 25.971 10.8457C36.0288 10.9562 46.4334 45.1317 58.5721 45.1317C70.7107 45.1317 78.6876 22.1497 86.3176 22.1497C93.9477 22.1497 112.676 65.2028 112.676 65.2028" stroke="#5DA7AE"/>
</svg>
