<svg width="171" height="66" viewBox="0 0 171 66" fill="none" xmlns="http://www.w3.org/2000/svg">
<path d="M1 65.2068C1 65.2068 15.9132 3.44229 25.971 3.55273C36.0288 3.66318 46.4334 45.1355 58.5721 45.1355C70.7107 45.1355 78.3408 30.1723 85.9708 30.1723C93.6008 30.1723 112.676 65.2067 112.676 65.2067" stroke="#C2EAEE"/>
<path d="M1 65.2075C1 65.2075 15.9132 0.889554 25.971 1C36.0288 1.11045 46.4334 45.1362 58.5721 45.1362C70.7107 45.1362 78.3408 33.0893 85.9708 33.0893C93.6008 33.0893 112.676 65.2074 112.676 65.2074" stroke="#F6FFFE"/>
<path d="M1 65.2056C1 65.2056 15.9132 5.99469 25.971 6.10513C36.0288 6.21558 46.4334 45.1343 58.5721 45.1343C70.7107 45.1343 78.3408 27.6196 85.9708 27.6196C93.6008 27.6196 112.676 65.2055 112.676 65.2055" stroke="#ACE6EC"/>
<path d="M1 65.2044C1 65.2044 15.9132 8.54719 25.971 8.65763C36.0288 8.76808 46.4334 45.1332 58.5721 45.1332C70.7107 45.1332 78.3408 24.7028 85.9708 24.7028C93.6008 24.7028 112.676 65.2043 112.676 65.2043" stroke="#85C6CC"/>
<path d="M1 65.2029C1 65.2029 15.9132 10.7352 25.971 10.8456C36.0288 10.9561 46.4334 45.1316 58.5721 45.1316C70.7107 45.1316 78.6876 22.1497 86.3176 22.1497C93.9477 22.1497 112.676 65.2028 112.676 65.2028" stroke="#5DA7AE"/>
<path d="M113.095 45.2909C111.569 45.2909 110.188 44.9044 108.954 44.1313C107.733 43.3437 106.769 42.257 106.061 40.8713C105.354 39.4857 105 37.9322 105 36.2111C105 34.4899 105.354 32.9365 106.061 31.5508C106.769 30.1652 107.733 29.0858 108.954 28.3127C110.188 27.5251 111.569 27.1313 113.095 27.1313C114.607 27.1313 115.98 27.5251 117.215 28.3127C118.45 29.0858 119.414 30.1652 120.107 31.5508C120.815 32.9365 121.169 34.4899 121.169 36.2111C121.169 37.9322 120.815 39.4857 120.107 40.8713C119.414 42.257 118.45 43.3437 117.215 44.1313C115.98 44.9044 114.607 45.2909 113.095 45.2909ZM113.095 43.9344C114.371 43.9344 115.523 43.6062 116.549 42.9499C117.59 42.2789 118.401 41.3527 118.984 40.1712C119.58 38.9897 119.879 37.6697 119.879 36.2111C119.879 34.7525 119.58 33.4325 118.984 32.251C118.401 31.0695 117.59 30.1506 116.549 29.4942C115.523 28.8233 114.371 28.4878 113.095 28.4878C111.818 28.4878 110.66 28.8233 109.62 29.4942C108.579 30.1506 107.761 31.0695 107.164 32.251C106.581 33.4325 106.29 34.7525 106.29 36.2111C106.29 37.6697 106.581 38.9897 107.164 40.1712C107.761 41.3527 108.579 42.2789 109.62 42.9499C110.66 43.6062 111.818 43.9344 113.095 43.9344Z" fill="#F6FFFE"/>
<path d="M129.003 45.0502C128.031 45.0502 127.116 44.8023 126.256 44.3064C125.396 43.7958 124.695 43.1103 124.154 42.2497C124.099 42.1476 124.071 42.0236 124.071 41.8778C124.071 41.6736 124.126 41.5058 124.237 41.3746C124.348 41.2433 124.487 41.1776 124.653 41.1776C124.945 41.1776 125.174 41.3235 125.34 41.6152C126.173 42.9717 127.393 43.65 129.003 43.65C130.154 43.65 131.063 43.351 131.729 42.7529C132.408 42.1549 132.748 41.3964 132.748 40.4775C132.748 39.7045 132.436 38.9606 131.812 38.2458C131.201 37.5165 130.286 36.8529 129.065 36.2549C127.914 35.7006 127.012 35.1828 126.36 34.7014C125.722 34.2055 125.257 33.6877 124.966 33.148C124.674 32.6083 124.529 31.9811 124.529 31.2664C124.529 30.4788 124.73 29.7641 125.132 29.1223C125.548 28.4659 126.11 27.9481 126.818 27.5689C127.539 27.1896 128.33 27 129.19 27C131.201 27 132.762 27.8606 133.872 29.5817C133.941 29.6838 133.976 29.8078 133.976 29.9537C133.976 30.1287 133.927 30.2819 133.83 30.4131C133.733 30.5444 133.608 30.61 133.456 30.61C133.331 30.61 133.199 30.5736 133.06 30.5007C132.936 30.4131 132.831 30.311 132.748 30.1943C132.027 28.9837 130.841 28.3784 129.19 28.3784C128.191 28.3784 127.379 28.6555 126.755 29.2098C126.131 29.7495 125.819 30.435 125.819 31.2664C125.819 31.9811 126.096 32.6083 126.651 33.148C127.206 33.6877 128.177 34.293 129.564 34.964C131.16 35.737 132.304 36.5685 132.998 37.4582C133.705 38.3334 134.059 39.3398 134.059 40.4775C134.059 41.3673 133.851 42.1622 133.435 42.8623C133.019 43.5479 132.429 44.0876 131.666 44.4814C130.903 44.8606 130.015 45.0502 129.003 45.0502Z" fill="#F6FFFE"/>
<path d="M149.709 41.834C149.82 41.7027 149.966 41.6371 150.146 41.6371C150.313 41.6371 150.458 41.7027 150.583 41.834C150.708 41.9507 150.77 42.1039 150.77 42.2935C150.77 42.4685 150.701 42.629 150.562 42.7748C149.896 43.4895 149.029 44.0511 147.961 44.4595C146.907 44.8533 145.839 45.0502 144.757 45.0502C143.217 45.0502 141.829 44.6783 140.595 43.9344C139.36 43.1759 138.389 42.1257 137.681 40.7838C136.974 39.4419 136.62 37.9177 136.62 36.2111C136.62 34.5045 136.974 32.9657 137.681 31.5946C138.389 30.2089 139.36 29.1296 140.595 28.3565C141.829 27.5689 143.217 27.175 144.757 27.175C147.157 27.175 149.029 27.9773 150.375 29.5817C150.514 29.7422 150.583 29.9099 150.583 30.0849C150.583 30.26 150.521 30.4131 150.396 30.5444C150.271 30.6757 150.118 30.7413 149.938 30.7413C149.758 30.7413 149.612 30.6757 149.501 30.5444C148.918 29.8297 148.232 29.3192 147.441 29.0129C146.65 28.692 145.755 28.5315 144.757 28.5315C143.466 28.5315 142.294 28.8597 141.24 29.5161C140.199 30.1725 139.381 31.0841 138.784 32.251C138.202 33.4179 137.91 34.7379 137.91 36.2111C137.91 37.6697 138.202 38.9679 138.784 40.1056C139.381 41.2433 140.199 42.1257 141.24 42.7529C142.28 43.3801 143.453 43.6937 144.757 43.6937C145.853 43.6937 146.837 43.5406 147.711 43.2343C148.585 42.928 149.251 42.4612 149.709 41.834Z" fill="#F6FFFE"/>
<path d="M164.652 27.2407C164.832 27.2407 164.985 27.3063 165.11 27.4376C165.235 27.5689 165.297 27.722 165.297 27.897V44.1094C165.297 44.2845 165.235 44.4376 165.11 44.5689C164.985 44.7002 164.832 44.7658 164.652 44.7658C164.472 44.7658 164.319 44.7002 164.194 44.5689C164.069 44.4376 164.007 44.2845 164.007 44.1094V35.9485H154.726V44.1094C154.726 44.2845 154.664 44.4376 154.539 44.5689C154.414 44.7002 154.261 44.7658 154.081 44.7658C153.901 44.7658 153.748 44.7002 153.623 44.5689C153.498 44.4376 153.436 44.2845 153.436 44.1094V27.897C153.436 27.722 153.498 27.5689 153.623 27.4376C153.748 27.3063 153.901 27.2407 154.081 27.2407C154.261 27.2407 154.414 27.3063 154.539 27.4376C154.664 27.5689 154.726 27.722 154.726 27.897V34.6358H164.007V27.897C164.007 27.722 164.069 27.5689 164.194 27.4376C164.319 27.3063 164.472 27.2407 164.652 27.2407Z" fill="#F6FFFE"/>
<path d="M170.301 44.1094C170.301 44.2845 170.239 44.4376 170.114 44.5689C170.003 44.7002 169.857 44.7658 169.677 44.7658C169.496 44.7658 169.344 44.7002 169.219 44.5689C169.108 44.4376 169.052 44.2845 169.052 44.1094V27.8533C169.052 27.6637 169.108 27.5105 169.219 27.3938C169.344 27.2625 169.496 27.1969 169.677 27.1969C169.857 27.1969 170.003 27.2625 170.114 27.3938C170.239 27.5105 170.301 27.6637 170.301 27.8533V44.1094Z" fill="#F6FFFE"/>
</svg>
